<svg xmlns="http://www.w3.org/2000/svg" version="1.0" width="512.000000pt" height="512.000000pt" viewBox="0 0 512.000000 512.000000" preserveAspectRatio="xMidYMid meet">

<g transform="translate(0.000000,512.000000) scale(0.100000,-0.100000)" fill="#344767" stroke="none">
<path d="M997 4165 c-87 -24 -159 -67 -227 -134 -63 -64 -70 -77 -224 -400 -120 -252 -155 -335 -146 -341 16 -10 192 -43 340 -64 263 -38 712 -66 1040 -66 l205 1 55 117 c85 183 141 257 252 333 138 95 212 111 504 110 l233 -1 -25 57 c-104 235 -209 342 -385 388 -76 21 -1548 20 -1622 0z" fill="#344767"/>
<path d="M110 3748 c-69 -35 -110 -111 -110 -203 0 -50 40 -138 73 -159 21 -14 188 -68 194 -63 1 1 40 82 86 179 67 139 83 179 73 188 -17 13 -225 80 -251 80 -12 0 -41 -10 -65 -22z" fill="#344767"/>
<path d="M2592 3598 c-148 -16 -278 -93 -362 -213 -26 -38 -303 -615 -298 -621 7 -7 350 -76 488 -99 812 -132 1322 -109 2227 100 40 10 71 20 69 24 -2 3 -63 132 -136 285 -72 154 -145 299 -161 322 -61 90 -185 170 -299 194 -62 13 -1419 20 -1528 8z" fill="#344767"/>
<path d="M4795 3224 c-55 -19 -105 -41 -111 -50 -10 -12 4 -48 67 -182 44 -92 84 -169 90 -171 6 -2 50 7 97 20 70 18 94 30 123 59 78 77 76 222 -4 308 -58 62 -118 66 -262 16z" fill="#344767"/>
<path d="M292 3128 c-60 -161 -74 -315 -70 -756 l3 -364 24 -19 c22 -18 49 -19 692 -19 368 0 669 1 670 3 0 1 4 57 7 125 l7 122 -100 0 c-112 0 -153 14 -189 63 -30 40 -31 216 -2 263 35 59 65 68 229 72 l148 4 21 42 c11 22 33 59 48 81 24 37 140 273 140 286 0 3 -125 9 -277 12 -469 12 -864 48 -1166 108 -81 16 -152 29 -157 29 -5 0 -17 -24 -28 -52z m694 -301 c64 -32 127 -103 148 -164 20 -59 20 -157 0 -216 -20 -60 -84 -131 -148 -165 -43 -22 -64 -27 -131 -27 -130 0 -223 57 -277 170 -33 71 -38 162 -12 238 27 81 110 157 204 188 49 16 162 4 216 -24z" fill="#344767"/>
<path d="M775 2726 c-56 -24 -115 -112 -115 -171 0 -30 24 -88 47 -116 75 -89 206 -90 283 -3 80 91 53 232 -55 284 -47 23 -116 25 -160 6z" fill="#344767"/>
<path d="M4580 2629 c-423 -99 -933 -169 -1230 -169 -363 0 -966 76 -1358 170 -68 17 -125 30 -126 30 -11 0 -69 -150 -85 -220 -36 -152 -43 -253 -41 -600 2 -387 4 -419 40 -437 20 -10 341 -13 1547 -13 953 0 1531 4 1547 10 15 5 28 21 33 37 14 53 9 780 -6 878 -28 188 -93 356 -135 354 -12 -1 -95 -18 -186 -40z m-2104 -366 c69 -23 155 -111 178 -181 51 -152 -13 -311 -152 -379 -120 -59 -272 -28 -361 73 -75 86 -96 217 -51 322 27 63 111 144 172 165 58 21 154 21 214 0z m1917 1 c57 -19 129 -81 165 -142 24 -42 27 -57 27 -142 0 -81 -4 -102 -25 -143 -52 -103 -150 -162 -270 -162 -125 0 -214 55 -270 167 -24 50 -30 74 -30 128 0 36 8 89 17 116 22 64 110 154 173 177 59 20 155 21 213 1z m-631 -247 c54 -37 63 -63 63 -179 0 -92 -3 -110 -21 -135 -46 -62 -50 -63 -474 -63 -422 0 -429 1 -473 61 -24 34 -34 165 -17 228 13 48 57 97 93 104 12 3 198 4 412 3 359 -1 392 -2 417 -19z" fill="#344767"/>
<path d="M2295 2146 c-56 -24 -115 -112 -115 -171 0 -62 53 -138 115 -166 106 -49 227 13 253 129 15 67 -3 125 -55 174 -51 48 -133 62 -198 34z" fill="#344767"/>
<path d="M4215 2146 c-56 -24 -115 -112 -115 -171 0 -62 53 -138 115 -166 103 -47 223 10 257 122 14 49 0 113 -34 160 -45 60 -151 86 -223 55z" fill="#344767"/>
<path d="M2954 1907 c-3 -8 -4 -43 -2 -78 l3 -64 375 0 375 0 0 75 0 75 -373 3 c-308 2 -373 0 -378 -11z" fill="#344767"/>
<path d="M1442 2491 c-9 -5 -12 -28 -10 -77 l3 -69 101 -3 100 -3 16 73 c9 40 14 76 11 81 -6 10 -205 9 -221 -2z" fill="#344767"/>
<path d="M224 1774 c10 -130 45 -192 134 -236 43 -21 62 -23 247 -26 288 -6 358 13 422 110 25 37 28 52 31 140 l4 99 -422 -1 -423 -1 7 -85z" fill="#344767"/>
<path d="M1752 1183 c3 -89 6 -104 31 -141 15 -23 46 -54 69 -69 l41 -28 251 -3 c273 -4 300 0 358 48 52 43 77 102 85 199 l6 81 -384 0 c-211 0 -401 3 -422 7 l-39 6 4 -100z" fill="#344767"/>
<path d="M4468 1273 l-398 -3 0 -66 c0 -87 15 -135 59 -185 63 -74 82 -79 362 -79 242 0 246 0 296 25 86 43 123 113 123 236 0 76 -1 79 -22 77 -13 -2 -202 -4 -420 -5z" fill="#344767"/>
</g>
</svg>