<?xml version="1.0" standalone="no"?>
<!DOCTYPE svg PUBLIC "-//W3C//DTD SVG 20010904//EN"
 "http://www.w3.org/TR/2001/REC-SVG-20010904/DTD/svg10.dtd">
<svg version="1.0" xmlns="http://www.w3.org/2000/svg"
 width="2560.000000pt" height="1440.000000pt" viewBox="0 0 2560.000000 1440.000000"
 preserveAspectRatio="xMidYMid meet">

<g transform="translate(0.000000,1440.000000) scale(0.100000,-0.100000)"
fill="#000000" stroke="none">
<path d="M12828 13635 c-3 -3 -86 -10 -184 -15 -639 -34 -758 -42 -1049 -76
-71 -8 -164 -19 -205 -24 -202 -23 -649 -89 -920 -136 -47 -8 -110 -19 -140
-24 -45 -7 -244 -42 -445 -80 -69 -13 -306 -61 -400 -80 -49 -11 -164 -35
-255 -55 -199 -42 -463 -100 -545 -121 -33 -8 -166 -42 -295 -74 -255 -64
-357 -90 -465 -122 -38 -11 -86 -24 -105 -28 -19 -4 -75 -20 -125 -34 -49 -14
-106 -31 -125 -36 -36 -10 -178 -53 -315 -95 -309 -96 -452 -141 -535 -170
-52 -18 -106 -36 -120 -40 -14 -3 -41 -12 -60 -20 -19 -7 -69 -25 -110 -40
-41 -15 -84 -31 -95 -35 -11 -5 -73 -27 -137 -50 -65 -22 -162 -59 -215 -81
-54 -22 -111 -45 -128 -51 -51 -17 -317 -126 -400 -163 -27 -13 -108 -49 -180
-80 -339 -148 -612 -281 -920 -448 -297 -160 -363 -197 -420 -230 -27 -17 -70
-41 -95 -55 -25 -13 -52 -31 -61 -38 -8 -8 -19 -14 -23 -14 -4 0 -34 -18 -67
-40 -33 -22 -62 -40 -65 -40 -5 0 -388 -243 -394 -250 -3 -3 -45 -33 -95 -66
-49 -32 -151 -103 -225 -158 -74 -54 -155 -113 -179 -130 -24 -17 -67 -49 -95
-72 -28 -22 -91 -71 -141 -109 -49 -38 -97 -76 -106 -84 -8 -9 -35 -32 -58
-51 -80 -64 -136 -112 -146 -124 -5 -6 -64 -59 -130 -117 -114 -102 -411 -398
-485 -485 -19 -22 -73 -85 -121 -140 -310 -360 -560 -781 -721 -1219 -105
-283 -150 -486 -193 -860 -49 -421 16 -998 156 -1395 17 -47 38 -108 49 -136
32 -90 142 -325 202 -433 32 -58 58 -106 58 -107 0 -6 125 -203 183 -289 60
-89 231 -320 251 -341 6 -6 25 -28 41 -49 17 -22 48 -59 70 -84 22 -25 56 -63
75 -85 150 -171 463 -483 625 -621 38 -33 90 -78 115 -100 49 -44 231 -191
266 -215 13 -8 69 -50 126 -93 57 -43 110 -84 119 -90 8 -7 23 -16 32 -22 9
-5 80 -53 159 -106 167 -113 316 -209 324 -209 3 0 18 -8 32 -18 15 -11 52
-33 82 -49 30 -17 100 -56 155 -88 116 -66 470 -248 565 -289 36 -16 107 -48
158 -72 52 -24 100 -44 107 -44 8 0 16 -4 19 -9 3 -4 27 -16 53 -26 26 -10 73
-29 103 -42 67 -31 446 -175 545 -208 22 -7 65 -22 95 -33 78 -28 411 -136
500 -162 41 -13 118 -35 170 -50 52 -16 127 -38 165 -49 106 -32 647 -167 845
-212 426 -97 920 -195 1255 -248 72 -12 155 -26 185 -31 235 -42 733 -107
1065 -139 116 -11 255 -25 310 -31 55 -6 188 -15 295 -21 107 -5 274 -14 370
-20 200 -11 1584 -9 1765 3 66 4 226 12 355 17 129 5 291 14 360 20 69 7 177
16 240 22 63 5 187 14 275 20 88 5 196 14 240 18 44 5 155 16 247 25 92 8 193
20 225 26 32 6 184 24 338 40 154 17 309 34 345 39 36 6 110 15 165 21 100 12
299 38 495 66 208 30 436 64 490 74 30 5 96 16 145 24 309 52 605 106 885 162
537 108 1281 291 1700 419 229 70 338 104 475 150 259 86 516 177 635 225 30
12 82 32 115 45 144 54 477 194 635 267 349 161 657 317 890 451 58 33 123 70
145 82 145 79 710 439 825 527 14 11 63 46 110 78 47 33 90 63 95 68 6 4 48
37 95 72 76 58 205 161 401 321 69 56 158 134 279 243 73 67 408 396 485 478
58 61 193 212 221 247 10 13 36 44 57 69 115 135 343 441 403 539 10 18 46 76
79 130 162 266 264 492 363 803 42 131 75 282 97 450 24 179 21 720 -5 915
-51 396 -160 771 -327 1125 -63 132 -78 163 -132 260 -156 280 -285 462 -541
765 -331 391 -880 851 -1445 1210 -33 21 -76 48 -95 60 -41 27 -196 117 -260
153 -25 13 -49 28 -55 32 -11 8 -85 49 -200 110 -124 66 -494 250 -503 250 -5
0 -33 13 -63 29 -42 22 -305 136 -466 202 -13 5 -33 13 -45 18 -101 42 -405
156 -518 196 -195 68 -524 176 -595 195 -16 5 -52 15 -80 24 -132 39 -241 70
-355 101 -69 19 -138 39 -155 44 -96 31 -880 215 -1055 248 -14 3 -90 17 -170
33 -318 62 -568 107 -820 145 -288 44 -654 97 -730 106 -47 5 -135 16 -195 24
-330 43 -660 76 -955 95 -74 5 -182 14 -240 20 -166 16 -435 29 -840 40 -206
6 -395 16 -420 22 -46 11 -1031 24 -1042 13z m1297 -1295 c77 -6 219 -15 315
-20 516 -27 740 -42 789 -50 30 -6 84 -10 120 -10 35 0 103 -4 150 -10 47 -5
147 -14 221 -21 400 -33 954 -94 1280 -140 793 -113 1224 -227 1650 -439 186
-93 192 -104 103 -188 -32 -29 -114 -106 -183 -171 -69 -65 -168 -155 -220
-201 -52 -46 -124 -109 -160 -140 -36 -32 -117 -99 -180 -149 -63 -50 -133
-106 -155 -124 -40 -32 -223 -166 -345 -251 -36 -25 -129 -88 -208 -138 -78
-51 -163 -106 -189 -123 -60 -39 -105 -66 -178 -108 -33 -19 -100 -58 -150
-87 -95 -56 -120 -70 -310 -172 -242 -131 -700 -358 -930 -460 -49 -22 -121
-55 -160 -73 -57 -26 -206 -91 -310 -135 -11 -4 -37 -15 -57 -24 -91 -40 -276
-114 -428 -172 -19 -7 -89 -33 -154 -58 -65 -26 -123 -46 -129 -46 -5 0 -23
-7 -40 -15 -44 -20 -430 -146 -617 -201 -374 -110 -782 -208 -1165 -279 -355
-66 -372 -68 -520 -62 -238 10 -403 50 -588 143 -180 90 -316 200 -455 366
-217 262 -346 531 -407 848 -68 356 -26 749 122 1129 49 126 133 306 168 361
13 19 53 85 91 145 37 61 72 115 76 120 5 6 34 44 66 86 256 342 534 597 723
664 24 9 148 32 274 50 127 19 291 43 365 55 209 32 328 48 410 54 126 10 602
46 655 49 123 8 533 6 660 -3z m-5517 -652 c2 -9 -28 -59 -66 -110 -37 -51
-99 -138 -137 -193 -38 -55 -71 -102 -75 -105 -3 -3 -24 -32 -46 -65 -23 -33
-69 -100 -103 -150 -117 -170 -485 -727 -574 -870 -27 -44 -64 -102 -82 -130
-103 -159 -453 -736 -513 -845 -14 -25 -40 -72 -60 -105 -40 -70 -45 -79 -164
-290 -50 -88 -110 -194 -133 -235 -23 -41 -63 -113 -88 -160 -24 -47 -76 -143
-114 -215 -39 -71 -94 -175 -123 -230 -104 -193 -465 -923 -558 -1125 -13 -30
-49 -106 -78 -168 -30 -62 -54 -115 -54 -118 0 -2 -15 -37 -34 -77 -67 -144
-166 -366 -166 -374 0 -5 -8 -24 -19 -43 -17 -33 -69 -154 -204 -475 -30 -71
-100 -247 -157 -390 -56 -143 -108 -273 -115 -290 -21 -47 -212 -558 -223
-596 -6 -19 -27 -79 -47 -134 -53 -143 -106 -295 -116 -330 -25 -90 -81 -231
-98 -248 -20 -20 -20 -20 -143 43 -194 99 -286 149 -466 255 -9 6 -39 24 -67
40 -68 40 -364 239 -397 267 -15 13 -43 34 -63 48 -287 202 -684 606 -855 870
-5 8 -22 33 -36 55 -206 310 -388 802 -423 1145 -34 331 -33 319 -16 475 41
385 111 621 294 985 52 103 210 356 323 516 100 142 112 159 118 164 3 3 41
50 85 105 175 219 361 416 557 587 84 74 328 270 418 336 152 112 311 223 500
349 198 133 254 169 350 228 115 71 179 111 212 132 21 12 40 23 42 23 3 0 29
14 58 32 316 188 836 458 1158 601 162 72 398 171 495 207 61 23 119 46 130
51 104 43 271 105 445 164 260 88 271 92 410 134 296 91 338 103 495 146 55
15 111 31 125 36 14 5 86 24 160 43 74 19 149 39 165 45 41 13 69 9 73 -11z
m13154 -1056 c222 -115 431 -255 598 -401 138 -121 345 -326 407 -401 15 -19
37 -44 49 -55 11 -11 42 -47 68 -80 27 -33 53 -65 60 -70 6 -6 16 -18 21 -26
6 -9 37 -52 69 -95 277 -366 462 -676 512 -858 61 -221 89 -570 63 -776 -6
-47 -13 -128 -14 -180 -4 -104 -17 -200 -39 -270 -20 -64 -83 -223 -112 -284
-23 -46 -138 -320 -186 -439 -78 -199 -281 -544 -427 -727 -252 -315 -709
-758 -1179 -1145 -330 -272 -521 -391 -967 -600 -187 -88 -644 -285 -705 -304
-25 -8 -157 -62 -260 -106 -30 -13 -66 -27 -80 -30 -14 -4 -40 -13 -58 -22
-159 -72 -788 -269 -1072 -336 -225 -54 -299 -70 -508 -112 -187 -38 -235 -45
-247 -35 -8 7 -15 17 -15 22 0 5 33 55 73 113 79 113 175 262 220 340 16 28
37 59 47 70 10 11 26 36 37 55 10 19 36 62 57 95 22 33 60 93 85 133 25 41 67
106 92 145 25 40 48 79 52 87 8 16 21 39 52 85 11 16 38 61 61 100 22 38 78
131 124 205 46 74 90 149 99 165 8 17 41 72 74 124 32 52 69 115 83 140 13 25
33 60 43 76 34 57 201 347 201 350 0 2 17 32 38 66 21 35 54 91 72 124 156
281 347 629 403 735 28 52 62 118 77 145 111 205 341 653 472 915 203 409 438
895 438 905 0 3 24 55 54 118 69 144 224 482 261 567 15 36 47 108 70 160 24
52 45 102 48 110 3 8 29 67 57 130 53 119 140 325 230 540 29 69 62 148 74
175 13 28 33 77 45 110 13 33 27 69 32 80 4 11 24 58 42 103 36 89 58 122 81
122 8 0 65 -26 128 -58z m-7222 -4217 c222 -61 442 -210 558 -379 90 -130 202
-329 202 -359 0 -6 7 -25 15 -40 8 -15 27 -76 43 -135 67 -242 83 -356 89
-627 8 -342 -18 -559 -103 -890 -23 -88 -122 -383 -146 -435 -11 -25 -26 -61
-33 -80 -21 -58 -138 -299 -190 -390 -52 -93 -183 -307 -251 -410 -100 -153
-196 -205 -519 -279 -22 -5 -60 -14 -85 -20 -116 -28 -600 -108 -760 -127 -25
-2 -76 -9 -115 -15 -76 -11 -306 -32 -590 -54 -400 -31 -1283 -29 -1920 6
-509 27 -901 47 -1045 54 -69 3 -134 8 -145 11 -11 3 -103 12 -205 20 -390 33
-766 82 -1200 159 -181 32 -453 96 -635 150 -49 15 -112 33 -139 40 -44 12
-65 27 -66 48 0 11 37 45 186 172 71 60 131 112 134 115 3 3 34 30 70 60 35
30 70 60 76 65 7 6 20 17 30 25 11 8 59 49 109 90 49 41 99 82 110 92 11 9 65
54 121 100 251 207 780 638 868 707 33 25 90 71 127 102 37 31 91 73 121 95
29 21 60 44 68 51 77 61 135 106 190 146 250 185 394 287 511 362 133 86 393
249 414 261 11 6 43 25 71 42 28 18 55 32 59 32 4 0 19 8 33 19 57 39 472 250
642 326 47 20 108 47 135 60 110 50 264 115 330 140 39 15 104 40 145 57 104
43 319 123 420 158 47 16 132 45 190 65 58 20 139 47 180 60 41 13 120 38 175
55 165 52 256 80 335 101 322 88 529 134 671 149 47 5 103 17 124 26 96 40
194 54 350 50 123 -4 167 -9 245 -31z"/>
</g>
</svg>
